<?xml version="1.0" encoding="UTF-8" standalone="no"?>
<!DOCTYPE svg PUBLIC "-//W3C//DTD SVG 1.1//EN" "http://www.w3.org/Graphics/SVG/1.1/DTD/svg11.dtd">
<svg width="100%" height="100%" viewBox="0 0 1185 169" version="1.1" xmlns="http://www.w3.org/2000/svg" xmlns:xlink="http://www.w3.org/1999/xlink" xml:space="preserve" xmlns:serif="http://www.serif.com/" style="fill-rule:evenodd;clip-rule:evenodd;stroke-linejoin:round;stroke-miterlimit:2;">
    <g transform="matrix(1,0,0,1,-433.884,-322.594)">
        <g transform="matrix(1,0,0,1,-471.784,-550.13)">
            <g transform="matrix(192,0,0,192,900.292,1035.73)">
                <path d="M0.028,-0.107L0.09,-0.107L0.09,-0.231L0.151,-0.231L0.151,-0.355L0.213,-0.355L0.213,-0.478L0.275,-0.478L0.275,-0.602L0.337,-0.602L0.337,-0.726L0.398,-0.726L0.398,-0.849L0.471,-0.849L0.471,-0.715L0.409,-0.715L0.409,-0.591L0.347,-0.591L0.347,-0.468L0.286,-0.468L0.286,-0.344L0.224,-0.344L0.224,-0.22L0.162,-0.22L0.162,-0.097L0.1,-0.097L0.1,0.028L0.028,0.028L0.028,-0.107Z" style="fill:rgb(0,255,0);fill-rule:nonzero;"/>
            </g>
        </g>
        <g transform="matrix(1,0,0,1,0,-5.952)">
            <g transform="matrix(192,0,0,192,428.508,485.602)">
                <path d="M0.091,-0.097L0.028,-0.097L0.028,-0.664L0.091,-0.664L0.091,-0.726L0.153,-0.726L0.153,-0.787L0.349,-0.787L0.349,-0.726L0.41,-0.726L0.41,-0.664L0.472,-0.664L0.472,-0.097L0.41,-0.097L0.41,-0.035L0.349,-0.035L0.349,0.028L0.153,0.028L0.153,-0.035L0.091,-0.035L0.091,-0.097ZM0.163,-0.107L0.163,-0.046L0.338,-0.046L0.338,-0.107L0.4,-0.107L0.4,-0.653L0.338,-0.653L0.338,-0.715L0.163,-0.715L0.163,-0.653L0.102,-0.653L0.102,-0.107L0.163,-0.107Z" style="fill-rule:nonzero;"/>
            </g>
            <g transform="matrix(192,0,0,192,524.508,485.602)">
                <path d="M0.184,-0.468L0.059,-0.468L0.059,-0.54L0.184,-0.54L0.184,-0.726L0.245,-0.726L0.245,-0.787L0.441,-0.787L0.441,-0.715L0.256,-0.715L0.256,-0.54L0.441,-0.54L0.441,-0.468L0.256,-0.468L0.256,0.028L0.184,0.028L0.184,-0.468Z" style="fill-rule:nonzero;"/>
            </g>
            <g transform="matrix(192,0,0,192,620.508,485.602)">
                <path d="M0.091,-0.097L0.028,-0.097L0.028,-0.54L0.102,-0.54L0.102,-0.107L0.163,-0.107L0.163,-0.046L0.338,-0.046L0.338,-0.107L0.4,-0.107L0.4,-0.54L0.472,-0.54L0.472,0.028L0.4,0.028L0.4,-0.035L0.349,-0.035L0.349,0.028L0.153,0.028L0.153,-0.035L0.091,-0.035L0.091,-0.097Z" style="fill-rule:nonzero;"/>
            </g>
            <g transform="matrix(192,0,0,192,716.508,485.602)">
                <path d="M0.028,-0.54L0.102,-0.54L0.102,-0.478L0.153,-0.478L0.153,-0.54L0.349,-0.54L0.349,-0.478L0.41,-0.478L0.41,-0.417L0.472,-0.417L0.472,0.028L0.4,0.028L0.4,-0.406L0.338,-0.406L0.338,-0.468L0.163,-0.468L0.163,-0.406L0.102,-0.406L0.102,0.028L0.028,0.028L0.028,-0.54Z" style="fill-rule:nonzero;"/>
            </g>
            <g transform="matrix(192,0,0,192,812.508,485.602)">
                <path d="M0.091,-0.097L0.028,-0.097L0.028,-0.417L0.091,-0.417L0.091,-0.478L0.153,-0.478L0.153,-0.54L0.349,-0.54L0.349,-0.478L0.4,-0.478L0.4,-0.726L0.472,-0.726L0.472,0.028L0.4,0.028L0.4,-0.035L0.349,-0.035L0.349,0.028L0.153,0.028L0.153,-0.035L0.091,-0.035L0.091,-0.097ZM0.163,-0.107L0.163,-0.046L0.338,-0.046L0.338,-0.107L0.4,-0.107L0.4,-0.406L0.338,-0.406L0.338,-0.468L0.163,-0.468L0.163,-0.406L0.102,-0.406L0.102,-0.107L0.163,-0.107Z" style="fill-rule:nonzero;"/>
            </g>
            <g transform="matrix(192,0,0,192,908.508,485.602)">
                <path d="M0.028,-0.231L0.091,-0.231L0.091,-0.293L0.338,-0.293L0.338,-0.468L0.102,-0.468L0.102,-0.344L0.028,-0.344L0.028,-0.478L0.091,-0.478L0.091,-0.54L0.349,-0.54L0.349,-0.478L0.41,-0.478L0.41,-0.046L0.472,-0.046L0.472,0.028L0.4,0.028L0.4,-0.035L0.287,-0.035L0.287,0.028L0.091,0.028L0.091,-0.035L0.028,-0.035L0.028,-0.231ZM0.276,-0.046L0.276,-0.107L0.338,-0.107L0.338,-0.22L0.102,-0.22L0.102,-0.046L0.276,-0.046Z" style="fill-rule:nonzero;"/>
            </g>
            <g transform="matrix(192,0,0,192,1004.51,485.602)">
                <path d="M0.028,-0.54L0.102,-0.54L0.102,-0.478L0.153,-0.478L0.153,-0.54L0.225,-0.54L0.225,-0.478L0.338,-0.478L0.338,-0.54L0.41,-0.54L0.41,-0.478L0.472,-0.478L0.472,0.028L0.4,0.028L0.4,-0.468L0.349,-0.468L0.349,-0.406L0.287,-0.406L0.287,0.028L0.214,0.028L0.214,-0.468L0.163,-0.468L0.163,-0.406L0.102,-0.406L0.102,0.028L0.028,0.028L0.028,-0.54Z" style="fill-rule:nonzero;"/>
            </g>
            <g transform="matrix(192,0,0,192,1100.51,485.602)">
                <path d="M0.091,-0.097L0.028,-0.097L0.028,-0.417L0.091,-0.417L0.091,-0.478L0.153,-0.478L0.153,-0.54L0.349,-0.54L0.349,-0.478L0.41,-0.478L0.41,-0.417L0.472,-0.417L0.472,-0.22L0.102,-0.22L0.102,-0.107L0.163,-0.107L0.163,-0.046L0.338,-0.046L0.338,-0.107L0.4,-0.107L0.4,-0.169L0.472,-0.169L0.472,-0.097L0.41,-0.097L0.41,-0.035L0.349,-0.035L0.349,0.028L0.153,0.028L0.153,-0.035L0.091,-0.035L0.091,-0.097ZM0.4,-0.293L0.4,-0.406L0.338,-0.406L0.338,-0.468L0.163,-0.468L0.163,-0.406L0.102,-0.406L0.102,-0.293L0.4,-0.293Z" style="fill-rule:nonzero;"/>
            </g>
            <g transform="matrix(192,0,0,192,1196.51,485.602)">
                <path d="M0.028,-0.54L0.102,-0.54L0.102,-0.478L0.153,-0.478L0.153,-0.54L0.349,-0.54L0.349,-0.478L0.41,-0.478L0.41,-0.417L0.472,-0.417L0.472,0.028L0.4,0.028L0.4,-0.406L0.338,-0.406L0.338,-0.468L0.163,-0.468L0.163,-0.406L0.102,-0.406L0.102,0.028L0.028,0.028L0.028,-0.54Z" style="fill-rule:nonzero;"/>
            </g>
            <g transform="matrix(192,0,0,192,1292.51,485.602)">
                <path d="M0.184,-0.468L0.059,-0.468L0.059,-0.54L0.184,-0.54L0.184,-0.726L0.256,-0.726L0.256,-0.54L0.441,-0.54L0.441,-0.468L0.256,-0.468L0.256,-0.046L0.441,-0.046L0.441,0.028L0.245,0.028L0.245,-0.035L0.184,-0.035L0.184,-0.468Z" style="fill-rule:nonzero;"/>
            </g>
            <g transform="matrix(192,0,0,192,1388.51,485.602)">
                <path d="M0.028,-0.231L0.091,-0.231L0.091,-0.293L0.338,-0.293L0.338,-0.468L0.102,-0.468L0.102,-0.344L0.028,-0.344L0.028,-0.478L0.091,-0.478L0.091,-0.54L0.349,-0.54L0.349,-0.478L0.41,-0.478L0.41,-0.046L0.472,-0.046L0.472,0.028L0.4,0.028L0.4,-0.035L0.287,-0.035L0.287,0.028L0.091,0.028L0.091,-0.035L0.028,-0.035L0.028,-0.231ZM0.276,-0.046L0.276,-0.107L0.338,-0.107L0.338,-0.22L0.102,-0.22L0.102,-0.046L0.276,-0.046Z" style="fill-rule:nonzero;"/>
            </g>
        </g>
        <g transform="matrix(1,0,0,1,208.098,-649.852)">
            <g transform="matrix(192,0,0,192,1249.38,1129.5)">
                <rect x="0.213" y="-0.726" width="0.073" height="0.754" style="fill-rule:nonzero;"/>
            </g>
        </g>
        <g transform="matrix(1,0,0,1,-55.5233,-211.769)">
            <g transform="matrix(192,0,0,192,1583.44,691.419)">
                <path d="M0.028,-0.169L0.102,-0.169L0.102,-0.046L0.4,-0.046L0.4,-0.22L0.091,-0.22L0.091,-0.282L0.028,-0.282L0.028,-0.478L0.091,-0.478L0.091,-0.54L0.41,-0.54L0.41,-0.478L0.472,-0.478L0.472,-0.344L0.4,-0.344L0.4,-0.468L0.102,-0.468L0.102,-0.293L0.41,-0.293L0.41,-0.231L0.472,-0.231L0.472,-0.035L0.41,-0.035L0.41,0.028L0.091,0.028L0.091,-0.035L0.028,-0.035L0.028,-0.169Z" style="fill-rule:nonzero;"/>
            </g>
        </g>
    </g>
</svg>
